# xmcd
#
# Track frame offsets: 
#        200
#        7872
#        13130
#        20545
#        28322
#        35997
#        44052
#        49415
#        55672
#        63517
#        70055
#        76787
#        83355
#        90030
#        97165
#        104595
#
# Disc length: 1494 seconds
#
# Revision: 0
# Processed by: cddbd v1.4b42PL1 Copyright (c) Steve Scherf et al.
# Submitted via: ExactAudioCopy v0.90a11
#
DISCID=ca05d410
DTITLE=Carter Famliy - Carter Famliy Diamonds In The Rough
DYEAR=1900
DGENRE=
TTITLE0=Little Moses
TTITLE1=Little Log Cabin By The Sea
TTITLE2=Room In Heaven For Me
TTITLE3=The Storms Are On The Ocean
TTITLE4=Your Mother Still Prays For You Jack
TTITLE5=Engine 143
TTITLE6=Where Shall I Be
TTITLE7=Homestead On The Farm
TTITLE8=Diamonds In The Rough
TTITLE9=Broken Hearted Lover
TTITLE10=Darling Daisies
TTITLE11=Little Joe
TTITLE12=My Heavenly Home Is Bright and Fair
TTITLE13=The Last Letter
TTITLE14=Leaning On The Everlasting Arms
TTITLE15=My Old Pal Of Yesterday
EXTD=
EXTT0=
EXTT1=
EXTT2=
EXTT3=
EXTT4=
EXTT5=
EXTT6=
EXTT7=
EXTT8=
EXTT9=
EXTT10=
EXTT11=
EXTT12=
EXTT13=
EXTT14=
EXTT15=
PLAYORDER=
